<?xml version="1.0" encoding="UTF-8"?>
<svg width="191px" height="52px" viewBox="0 0 191 52" version="1.1" xmlns="http://www.w3.org/2000/svg" xmlns:xlink="http://www.w3.org/1999/xlink">
    <title>编组 91</title>
    <g id="页面-1" stroke="none" stroke-width="1" fill="none" fill-rule="evenodd">
        <g id="编组-91">
            <g id="编组" transform="translate(5.281250, 5.281250)">
                <path d="M22.3897373,4.6974515 L22.4028286,4.6974515 L15.8271861,0.435395376 C14.4403283,-0.463511008 12.6505044,0.0749550376 11.8498906,1.63178848 L8.05328204,9.01382056 C7.50140263,10.0869123 7.55813152,11.3745128 8.10046521,12.3657237 L22.3897373,4.6974515 Z" id="Fill-2" fill="#00E7E7"></path>
                <path d="M23.2878675,4.6974515 L23.2747763,4.6974515 L29.8504188,0.435395376 C31.2372766,-0.463511008 33.0271005,0.0749550376 33.8277143,1.63178848 L37.6243228,9.01382056 C38.1762022,10.0869123 38.1194733,11.3745128 37.5771396,12.3657237 L23.2878675,4.6974515 Z" id="Fill-3" fill="#00E7E7"></path>
                <path d="M22.2879526,35.3567289 C14.6997811,35.3567289 8.54837801,29.1698555 8.54837801,21.5379291 C8.54837801,13.9060027 14.6997811,7.71912929 22.2879526,7.71912929 C29.8761241,7.71912929 36.0275272,13.9060027 36.0275272,21.5379291 C36.0275272,29.1698555 29.8761241,35.3567289 22.2879526,35.3567289 M22.6295533,3.17810222 C12.2421654,3.17810222 3.82147016,11.6472158 3.82147016,22.0944994 C3.82147016,32.5417831 12.2421654,41.0108966 22.6295533,41.0108966 C33.0168047,41.0108966 41.4375,32.5417831 41.4375,22.0944994 C41.4375,11.6472158 33.0168047,3.17810222 22.6295533,3.17810222" id="Fill-4" fill="#4E58FE"></path>
                <path d="M22.2879526,35.3567289 C14.6997811,35.3567289 8.54837801,29.1698555 8.54837801,21.5379291 C8.54837801,13.9060027 14.6997811,7.71912929 22.2879526,7.71912929 C29.8761241,7.71912929 36.0275272,13.9060027 36.0275272,21.5379291 C36.0275272,29.1698555 29.8761241,35.3567289 22.2879526,35.3567289 M22.6295533,3.17810222 C12.2421654,3.17810222 3.82147016,11.6472158 3.82147016,22.0944994 C3.82147016,32.5417831 12.2421654,41.0108966 22.6295533,41.0108966 C33.0168047,41.0108966 41.4375,32.5417831 41.4375,22.0944994 C41.4375,11.6472158 33.0168047,3.17810222 22.6295533,3.17810222" id="Fill-5" fill="#4E58FE"></path>
                <path d="M30.6012993,4.93951435 C30.0596475,4.68413387 29.5042225,4.45385254 28.9361154,4.25031621 C28.9346153,4.2497676 28.9331153,4.24935614 28.9317516,4.24880752 C28.6494708,4.14772513 28.3641899,4.05322612 28.075909,3.9655848 C28.0709997,3.96407611 28.0659541,3.96284173 28.0610449,3.96133304 C27.8179016,3.88768141 27.5716218,3.82116179 27.3243875,3.75711094 L27.3243875,3.75519079 C27.3117053,3.75189909 27.298614,3.74984179 27.2859318,3.74655009 C27.2549764,3.73859517 27.2248392,3.72872009 27.1937474,3.72090232 C27.1798379,3.71884501 27.1653829,3.71815925 27.1514734,3.71610194 C25.702432,3.35511298 24.1895706,3.15706281 22.629526,3.15706281 C20.7522905,3.15706281 18.9407842,3.43699384 17.2303262,3.95241803 C17.2198259,3.95557257 17.2091892,3.95804134 17.1986889,3.96119588 C17.193507,3.96270457 17.1881886,3.96407611 17.1830067,3.9655848 C17.1332325,3.98080888 17.084822,3.99905035 17.0351843,4.01454873 C16.8869527,4.06104389 16.7380394,4.10603035 16.5913079,4.15595436 L16.5913079,4.16144051 C16.5036236,4.19134005 16.4143029,4.2176736 16.3273004,4.24880752 C16.3258003,4.24935614 16.3243003,4.2497676 16.3229366,4.25031621 C15.7548295,4.45385254 15.1992681,4.68413387 14.6576163,4.93951435 C11.7765794,6.63514749 9.82925099,9.78008545 9.82925099,13.3619956 L9.82925099,15.6905938 C10.0993951,15.1070041 10.4092221,14.546182 10.7547774,14.010459 C10.7613231,14.0003097 10.767596,13.9901603 10.7741416,13.9800109 C11.1151968,13.454163 11.490753,12.9536886 11.8978101,12.4806449 C11.9136288,12.4622663 11.929311,12.4438877 11.945266,12.4256462 C12.347823,11.9626148 12.7803808,11.5272884 13.2403485,11.1218616 C13.2670765,11.0982712 13.2942137,11.074955 13.3212144,11.0515017 C13.7772275,10.6558128 14.2587412,10.289612 14.7641193,9.956191 C14.8017568,9.931229 14.840076,9.90722708 14.8779862,9.88267654 C15.1080383,9.73413891 15.3423177,9.5917732 15.5815063,9.45695096 C15.6068707,9.44268696 15.6315532,9.42732573 15.6569176,9.41319888 C15.9166977,9.26905018 16.1816599,9.13367932 16.4512585,9.00612623 C16.4968052,8.98459307 16.5431702,8.96470577 16.5889897,8.94358407 C16.820269,8.83742699 17.0548212,8.73757898 17.2927825,8.64404005 C17.2957826,8.64294282 17.2987827,8.64170843 17.3019191,8.64047405 C17.4092404,8.59823066 17.5187435,8.56051335 17.6274285,8.52101304 C17.7944787,8.46011672 17.9628926,8.40196349 18.1329429,8.34765056 C18.245037,8.31171625 18.3574039,8.27660486 18.4708617,8.24355078 C18.6796404,8.18306593 18.8906009,8.12765577 19.1033343,8.07690884 C19.1331988,8.06977684 19.1625178,8.06154761 19.1923823,8.05455277 C19.2487021,8.04124884 19.3050219,8.02767061 19.3617508,8.01532676 C19.6264401,7.95744783 19.8941296,7.90793529 20.1641373,7.8654176 C20.2541399,7.85129075 20.3450971,7.84045559 20.4356451,7.82811175 C20.6543786,7.79862367 20.8744758,7.77366166 21.0962094,7.75446012 C21.1773481,7.74746528 21.2582141,7.74005897 21.3397618,7.73443566 C21.3513531,7.73374989 21.362808,7.73265266 21.3742628,7.73182974 C21.6765897,7.71180527 21.9805529,7.69808989 22.2879253,7.69808989 C22.5061134,7.69808989 22.7228014,7.70453612 22.9385348,7.71454835 C22.9937637,7.71715428 23.0484471,7.72126889 23.1034032,7.72483489 C23.1447225,7.72730366 23.1859055,7.73100681 23.2272249,7.73374989 C23.3472283,7.74184197 23.4672318,7.7500712 23.586417,7.76131782 C23.6398731,7.76625536 23.6931928,7.77215297 23.7465125,7.77791343 C23.8196055,7.7857312 23.8922894,7.79519482 23.9651096,7.80424697 C24.0564759,7.81549359 24.1478421,7.82619159 24.2386629,7.83922121 C24.2791641,7.84498167 24.3195288,7.85101644 24.3598936,7.85691406 C24.4608056,7.87227529 24.5608994,7.89010529 24.6611295,7.90766098 C24.7534503,7.92411945 24.8461803,7.93934352 24.9379556,7.95744783 C24.9445013,7.95868222 24.9510469,7.9599166 24.9577289,7.96115099 C25.084278,7.98625014 25.2095997,8.01477815 25.3349215,8.04330615 C25.4189239,8.06250769 25.503199,8.08102346 25.5865196,8.10173369 C25.7213871,8.13519923 25.8548909,8.17168216 25.988122,8.20926232 C26.0613514,8.22956109 26.1345807,8.25013417 26.2072646,8.27180448 C26.3474505,8.31377356 26.486409,8.35848571 26.6246857,8.40470656 C26.6872783,8.4256911 26.7497347,8.44667564 26.8117819,8.46848311 C26.9561951,8.51909288 27.099381,8.57217142 27.2413396,8.62758158 C27.3235693,8.65981274 27.4060716,8.69163243 27.4876194,8.72509798 C27.5534849,8.75225444 27.6198959,8.77831367 27.685216,8.80643021 C27.868903,8.88543084 28.0509537,8.967586 28.2304134,9.05426723 C28.2711873,9.07401739 28.3108702,9.0956877 28.3513714,9.11571216 C28.4929209,9.18593494 28.6336522,9.25766641 28.772338,9.33255241 C28.8439309,9.3712298 28.9141602,9.41169019 28.9849349,9.45146481 C29.091438,9.51140104 29.1972592,9.57202305 29.3019895,9.63470236 C29.3776734,9.68010029 29.452812,9.72618398 29.5276777,9.77295345 C29.6268169,9.83494699 29.7248652,9.89858638 29.822368,9.96291154 C29.8955973,10.0113269 29.9689631,10.0593307 30.0411015,10.1091176 C30.1463772,10.1815348 30.2496075,10.256558 30.3525649,10.3318554 C30.4132485,10.3761561 30.475023,10.4189481 30.5348883,10.4642089 C30.6859836,10.5784581 30.8343514,10.6959989 30.9804011,10.8162828 C31.0509031,10.8742989 31.1193596,10.9346466 31.1887707,10.9940342 C31.2716821,11.0650799 31.3544572,11.1361256 31.4355959,11.2090915 C31.5093707,11.2753368 31.5819183,11.3429537 31.6541931,11.4107077 C31.7282406,11.4801075 31.80147,11.5504674 31.8740175,11.6215131 C31.9465651,11.6925588 32.0187035,11.764016 32.089751,11.8367075 C32.1597075,11.908439 32.2280276,11.981542 32.2964841,12.0547822 C32.3657589,12.1288453 32.4357154,12.2022226 32.5034901,12.2779315 C32.580265,12.3637898 32.6544489,12.4522541 32.7291783,12.5400325 C32.8418179,12.672386 32.9517302,12.8069339 33.0593241,12.9435392 C33.1170076,13.0166422 33.1752365,13.0893337 33.23142,13.1636711 C33.2981037,13.2519982 33.3626055,13.341834 33.4272437,13.4316698 C33.4793361,13.5042241 33.5311558,13.5767785 33.5817482,13.650293 C33.6455682,13.7427347 33.7082972,13.8359993 33.7699354,13.9300869 C33.8173913,14.0026413 33.8636199,14.0760186 33.9098485,14.1496702 C33.9710775,14.2470494 34.0321701,14.3442915 34.0909445,14.4433166 C34.1314457,14.5113449 34.1696286,14.5807448 34.2089025,14.649596 C34.3248149,14.8525837 34.4355453,15.0585888 34.5412301,15.2677485 C34.5713674,15.3275475 34.6030046,15.3863865 34.6323236,15.4465971 C34.6846888,15.5541257 34.7339175,15.6634373 34.7835552,15.7724746 C34.8176471,15.8474978 34.8520117,15.9222467 34.8848763,15.9978184 C34.9320595,16.1065814 34.9771971,16.2163045 35.021653,16.3264391 C35.0528811,16.4037939 35.0832911,16.4814229 35.1130192,16.5594635 C35.1557022,16.6711067 35.1978398,16.7828871 35.2376591,16.8957647 C35.2647963,16.9727081 35.2900243,17.0506114 35.3157977,17.1282405 C35.3545261,17.244547 35.3940727,17.3605792 35.429801,17.4783943 L35.429801,13.3619956 C35.429801,9.78008545 33.4824726,6.63514749 30.6012993,4.93951435" id="Fill-6" fill="#3833B5"></path>
                <path d="M27.9973749,19.5823619 C26.8882977,19.5823619 25.9859538,20.4897719 25.9859538,21.6053813 L25.9859538,27.0591673 C25.9859538,28.1747768 26.8882977,29.0823239 27.9973749,29.0823239 C29.106452,29.0823239 30.0089324,28.1747768 30.0089324,27.0591673 L30.0089324,21.6053813 C30.0089324,20.4897719 29.106452,19.5823619 27.9973749,19.5823619" id="Fill-7" fill="#00E7E7"></path>
                <path d="M22.2880344,14.4442355 C21.1789573,14.4442355 20.2764769,15.3516455 20.2764769,16.4672549 L20.2764769,27.0592359 C20.2764769,28.1747082 21.1789573,29.0823925 22.2880344,29.0823925 C23.3971116,29.0823925 24.2994555,28.1747082 24.2994555,27.0592359 L24.2994555,16.4672549 C24.2994555,15.3516455 23.3971116,14.4442355 22.2880344,14.4442355" id="Fill-8" fill="#00E7E7"></path>
                <path d="M16.578503,19.5823619 C15.4694259,19.5823619 14.5669455,20.4897719 14.5669455,21.6053813 L14.5669455,27.0591673 C14.5669455,28.1747768 15.4694259,29.0823239 16.578503,29.0823239 C17.6875802,29.0823239 18.5899242,28.1747768 18.5899242,27.0591673 L18.5899242,21.6053813 C18.5899242,20.4897719 17.6875802,19.5823619 16.578503,19.5823619" id="Fill-9" fill="#00E7E7"></path>
                <path d="M27.9973749,17.2323677 C26.8882977,17.2323677 25.9859538,18.1397777 25.9859538,19.2553871 L25.9859538,24.7091731 C25.9859538,25.8247826 26.8882977,26.7323297 27.9973749,26.7323297 C29.106452,26.7323297 30.0089324,25.8247826 30.0089324,24.7091731 L30.0089324,19.2553871 C30.0089324,18.1397777 29.106452,17.2323677 27.9973749,17.2323677" id="Fill-10" fill="#4E58FE"></path>
                <path d="M16.578503,17.2323677 C15.4694259,17.2323677 14.5669455,18.1397777 14.5669455,19.2553871 L14.5669455,24.7091731 C14.5669455,25.8247826 15.4694259,26.7323297 16.578503,26.7323297 C17.6875802,26.7323297 18.5899242,25.8247826 18.5899242,24.7091731 L18.5899242,19.2553871 C18.5899242,18.1397777 17.6875802,17.2323677 16.578503,17.2323677" id="Fill-11" fill="#4E58FE"></path>
                <path d="M22.2880344,12.0942413 C21.1789573,12.0942413 20.2764769,13.0016513 20.2764769,14.1172607 L20.2764769,24.7092417 C20.2764769,25.824714 21.1789573,26.7323983 22.2880344,26.7323983 C23.3971116,26.7323983 24.2994555,25.824714 24.2994555,24.7092417 L24.2994555,14.1172607 C24.2994555,13.0016513 23.3971116,12.0942413 22.2880344,12.0942413" id="Fill-12" fill="#4E58FE"></path>
                <path d="M31.3515865,39.4935304 C31.3797532,39.4798082 31.394342,39.4724415 31.394342,39.4724415 C31.3814865,39.4793748 31.3648754,39.4865971 31.3515865,39.4935304" id="Fill-13" fill="#00E7E7"></path>
                <path d="M40.4492172,28.1616923 C40.4492172,28.1616923 40.0612516,27.144285 37.9532822,29.6463829 C37.3645836,30.3451818 36.7277472,30.9954282 36.0416821,31.5904016 C35.0587449,32.4428129 33.9961691,33.1778204 32.8415452,33.7682677 C31.484961,34.4618548 30.0570565,34.9228289 28.5604228,35.1618881 C28.4878753,35.1735462 28.4138277,35.1736833 28.3524623,35.2231959 C27.6325781,35.2795661 26.9147394,35.3500632 26.189946,35.344577 C24.1774339,35.3296273 22.1969682,35.0723266 20.2447305,34.5754182 C20.1206361,34.5438728 19.9949052,34.5186365 19.8698562,34.49052 C19.3305226,34.2813603 18.7697793,34.1413262 18.2267638,33.9406701 C16.0847025,33.1490181 14.3904723,32.0317627 12.3670508,30.5455635 C11.5993016,29.981724 8.35634525,27.2723867 8.13447527,27.0806456 C4.6828766,24.0954919 2.10021186,24.4622413 0.628942534,26.6336612 C-0.842326796,28.8049439 0.605078216,31.7999727 1.54451416,33.1735686 C1.85488667,33.6272736 2.25267077,34.0023894 2.59208956,34.4296236 C3.28715489,35.210852 4.08872325,35.8675447 4.91238316,36.4952979 C7.76041912,38.6658948 10.9496467,40.054852 14.4087455,40.8020662 C15.9754721,41.1404247 17.5626539,41.3291485 19.165927,41.3941594 C19.9820867,41.4273506 20.7970191,41.4261162 21.6126333,41.4375 C21.7991841,41.3761922 21.995417,41.4512154 22.1821041,41.3940222 C23.6498279,41.3624768 25.0995511,41.178965 26.5236373,40.8153701 C27.6511241,40.5274842 29.5514057,39.8688713 30.5920263,39.3209417 C30.4762503,39.3777234 30.106967,39.5510858 29.5479965,39.7661431 C34.6981892,37.7333858 38.7030309,33.4748956 40.4492172,28.1616923" id="Fill-14" fill="#00E7E7"></path>
            </g>
            <g id="Dubbing-AI" transform="translate(62.180000, 15.672000)" fill="#3D3F52" fill-rule="nonzero">
                <path d="M10.052,0.784 C11.452,0.784 12.684,1.08266667 13.748,1.68 C14.812,2.27733333 15.638,3.15466667 16.226,4.312 C16.814,5.46933333 17.108,6.86 17.108,8.484 C17.108,9.30533333 17.024,10.2106667 16.856,11.2 C16.4826667,13.2906667 15.806,15.092 14.826,16.604 C13.846,18.116 12.642,19.2733333 11.214,20.076 C9.786,20.8786667 8.22266667,21.28 6.524,21.28 L0,21.28 L3.612,0.784 L10.052,0.784 Z M12.18,11.172 C12.348,10.2386667 12.432,9.39866667 12.432,8.652 C12.432,5.94533333 11.284,4.592 8.988,4.592 L7.336,4.592 L5.096,17.444 L6.748,17.444 C9.64133333,17.444 11.452,15.3533333 12.18,11.172 Z" id="形状"></path>
                <path d="M21.252,21.644 C20.1133333,21.644 19.2546667,21.28 18.676,20.552 C18.0973333,19.824 17.808,18.7693333 17.808,17.388 C17.808,16.66 17.892,15.848 18.06,14.952 L19.488,6.776 L23.716,6.776 L22.372,14.224 C22.26,14.84 22.204,15.372 22.204,15.82 C22.204,17.0146667 22.6053333,17.612 23.408,17.612 C23.968,17.612 24.4533333,17.3553333 24.864,16.842 C25.2746667,16.3286667 25.5733333,15.5306667 25.76,14.448 L27.132,6.776 L31.332,6.776 L28.756,21.28 L25.032,21.28 C25.0506667,21.0933333 25.0833333,20.8133333 25.13,20.44 C25.1766667,20.0666667 25.2093333,19.7306667 25.228,19.432 C24.1826667,20.9066667 22.8573333,21.644 21.252,21.644 Z" id="路径"></path>
                <path d="M41.328,6.412 C42.616,6.412 43.6286667,6.88333333 44.366,7.826 C45.1033333,8.76866667 45.472,10.1173333 45.472,11.872 C45.472,12.6933333 45.388,13.5986667 45.22,14.588 C44.7906667,17.0893333 43.9926667,18.8906667 42.826,19.992 C41.6593333,21.0933333 40.3386667,21.644 38.864,21.644 C37.1466667,21.644 36.036,20.9253333 35.532,19.488 C35.308,20.16 35.14,20.748 35.028,21.252 L31.276,21.252 L35.028,0 L39.228,0 L37.856,7.952 C38.7893333,6.92533333 39.9466667,6.412 41.328,6.412 Z M38.276,17.892 C39.6386667,17.892 40.5346667,16.66 40.964,14.196 C41.076,13.58 41.132,13.0386667 41.132,12.572 C41.132,10.9666667 40.5813333,10.164 39.48,10.164 C38.1173333,10.164 37.2213333,11.4053333 36.792,13.888 C36.68,14.504 36.624,15.0453333 36.624,15.512 C36.624,16.3333333 36.7733333,16.9353333 37.072,17.318 C37.3706667,17.7006667 37.772,17.892 38.276,17.892 Z" id="形状"></path>
                <path d="M55.916,6.412 C57.204,6.412 58.2166667,6.88333333 58.954,7.826 C59.6913333,8.76866667 60.06,10.1173333 60.06,11.872 C60.06,12.6933333 59.976,13.5986667 59.808,14.588 C59.3786667,17.0893333 58.5806667,18.8906667 57.414,19.992 C56.2473333,21.0933333 54.9266667,21.644 53.452,21.644 C51.7346667,21.644 50.624,20.9253333 50.12,19.488 C49.896,20.16 49.728,20.748 49.616,21.252 L45.864,21.252 L49.616,0 L53.816,0 L52.444,7.952 C53.3773333,6.92533333 54.5346667,6.412 55.916,6.412 Z M52.864,17.892 C54.2266667,17.892 55.1226667,16.66 55.552,14.196 C55.664,13.58 55.72,13.0386667 55.72,12.572 C55.72,10.9666667 55.1693333,10.164 54.068,10.164 C52.7053333,10.164 51.8093333,11.4053333 51.38,13.888 C51.268,14.504 51.212,15.0453333 51.212,15.512 C51.212,16.3333333 51.3613333,16.9353333 51.66,17.318 C51.9586667,17.7006667 52.36,17.892 52.864,17.892 Z" id="形状"></path>
                <path d="M65.912,4.984 C65.2586667,4.984 64.6986667,4.74133333 64.232,4.256 C63.7653333,3.77066667 63.532,3.20133333 63.532,2.548 C63.532,1.89466667 63.7653333,1.32533333 64.232,0.84 C64.6986667,0.354666667 65.2586667,0.112 65.912,0.112 C66.5653333,0.112 67.13,0.354666667 67.606,0.84 C68.082,1.32533333 68.32,1.89466667 68.32,2.548 C68.32,3.20133333 68.082,3.77066667 67.606,4.256 C67.13,4.74133333 66.5653333,4.984 65.912,4.984 Z M64.792,21.28 L60.592,21.28 L63.168,6.804 L67.368,6.804 L64.792,21.28 Z" id="形状"></path>
                <path d="M77.336,6.412 C78.4933333,6.412 79.3613333,6.78066667 79.94,7.518 C80.5186667,8.25533333 80.808,9.31466667 80.808,10.696 C80.808,11.4053333 80.724,12.208 80.556,13.104 L79.1,21.28 L74.872,21.28 L76.216,13.832 C76.328,13.216 76.384,12.6653333 76.384,12.18 C76.384,11.0226667 75.9826667,10.444 75.18,10.444 C74.6386667,10.444 74.1626667,10.7006667 73.752,11.214 C73.3413333,11.7273333 73.0333333,12.5253333 72.828,13.608 L71.456,21.28 L67.256,21.28 L69.832,6.776 L73.556,6.776 C73.4626667,7.728 73.4066667,8.33466667 73.388,8.596 C74.396,7.14 75.712,6.412 77.336,6.412 Z" id="路径"></path>
                <path d="M96.04,6.804 L93.576,20.496 C92.6426667,25.7786667 90.1693333,28.42 86.156,28.42 C84.588,28.42 83.3,28.0513333 82.292,27.314 C81.284,26.5766667 80.6866667,25.4613333 80.5,23.968 L83.916,22.204 C84.1026667,23.0253333 84.392,23.6366667 84.784,24.038 C85.176,24.4393333 85.7173333,24.64 86.408,24.64 C87.2666667,24.64 87.9293333,24.2993333 88.396,23.618 C88.8626667,22.9366667 89.2453333,21.784 89.544,20.16 C88.5733333,21.1493333 87.4253333,21.644 86.1,21.644 C84.812,21.644 83.7946667,21.1726667 83.048,20.23 C82.3013333,19.2873333 81.928,17.92 81.928,16.128 C81.928,15.3066667 82.012,14.4106667 82.18,13.44 C82.628,10.9573333 83.4353333,9.16533333 84.602,8.064 C85.7686667,6.96266667 87.0893333,6.412 88.564,6.412 C90.244,6.412 91.3546667,7.13066667 91.896,8.568 C92.0266667,8.10133333 92.1853333,7.51333333 92.372,6.804 L96.04,6.804 Z M90.608,14.168 C90.72,13.5146667 90.776,12.9546667 90.776,12.488 C90.776,11.6666667 90.6266667,11.0693333 90.328,10.696 C90.0293333,10.3226667 89.628,10.136 89.124,10.136 C87.78,10.136 86.884,11.3773333 86.436,13.86 C86.324,14.476 86.268,15.0173333 86.268,15.484 C86.268,16.268 86.4173333,16.8606667 86.716,17.262 C87.0146667,17.6633333 87.4253333,17.864 87.948,17.864 C89.292,17.864 90.1786667,16.632 90.608,14.168 Z" id="形状"></path>
                <path d="M115.5,0.784 L118.636,21.28 L113.932,21.28 L113.512,17.136 L107.576,17.136 L105.7,21.28 L100.996,21.28 L111.188,0.784 L115.5,0.784 Z M113.064,13.188 L112.364,6.552 L109.368,13.188 L113.064,13.188 Z" id="形状"></path>
                <polygon id="路径" points="124.74 21.28 120.344 21.28 123.956 0.784 128.352 0.784"></polygon>
            </g>
        </g>
    </g>
</svg>